<?xml version="1.0" encoding="UTF-8"?>
<svg version="1.1" xmlns="http://www.w3.org/2000/svg" width="509" height="510">
<path d="M0 0 C167.97 0 335.94 0 509 0 C509 168.3 509 336.6 509 510 C341.03 510 173.06 510 0 510 C0 341.7 0 173.4 0 0 Z " fill="#232E21" transform="translate(0,0)"/>
<path d="M0 0 C57.75 0 115.5 0 175 0 C175 159.39 175 318.78 175 483 C174.67 483 174.34 483 174 483 C173.94577881 482.44465576 173.89155762 481.88931152 173.83569336 481.31713867 C167.2285954 416.84052328 134.64495979 356.55497002 85.203125 314.703125 C81.89077885 312.01037801 78.46471782 309.49174912 75 307 C74.34999023 306.52159668 73.69998047 306.04319336 73.03027344 305.55029297 C31.60864666 275.06561767 -17.18212958 257.53230313 -68.625 255.4375 C-69.62917969 255.39431641 -70.63335937 255.35113281 -71.66796875 255.30664062 C-74.11188383 255.20190141 -76.55587617 255.09972744 -79 255 C-78.2118924 248.70537436 -76.04834582 242.97378862 -73.96679688 237.01757812 C-71.90234859 230.98829539 -70.10689573 224.9111168 -68.38671875 218.77734375 C-64.67913219 205.61538529 -60.52873955 192.5928482 -56.40258789 179.55783081 C-53.95861432 171.83655472 -51.52641618 164.11156318 -49.09375 156.38671875 C-48.84294174 155.59054453 -48.59213348 154.79437031 -48.33372498 153.9740696 C-42.90263639 136.73025465 -37.54122011 119.46510149 -32.19807816 102.19386292 C-31.50070417 99.93977604 -30.80310801 97.68575804 -30.10543823 95.4317627 C-27.8818694 88.247875 -25.65903776 81.06375957 -23.43701172 73.87939453 C-23.23025975 73.21091681 -23.02350779 72.54243908 -22.81049061 71.85370445 C-22.60721999 71.19648211 -22.40394938 70.53925976 -22.19451904 69.86212158 C-19.44221728 60.96332176 -16.68935282 52.0647043 -13.92871094 43.16848755 C-13.36845295 41.36168316 -12.80899134 39.55463156 -12.25048828 37.74728394 C-11.86546143 36.50133957 -11.86546143 36.50133957 -11.47265625 35.23022461 C-11.14418701 34.16595497 -11.14418701 34.16595497 -10.80908203 33.08018494 C-7.35099636 21.99287439 -3.6763128 11.02893841 0 0 Z " fill="#F9C8B7" transform="translate(334,0)"/>
<path d="M0 0 C0.33 0 0.66 0 1 0 C1.09796875 0.91136719 1.1959375 1.82273437 1.296875 2.76171875 C7.81052052 59.1945959 31.29754855 111.09973732 71 152 C71.54624023 152.57202148 72.09248047 153.14404297 72.65527344 153.73339844 C80.87183578 162.32493225 89.42774465 169.95640707 99 177 C99.63744141 177.47646973 100.27488281 177.95293945 100.93164062 178.44384766 C128.00025842 198.59920954 159.31823361 214.28486243 192.4765625 221.24609375 C196 222 196 222 199.11328125 222.96875 C204.79550355 224.6322849 210.71124993 225.25921539 216.5625 226.0625 C217.83633545 226.2387793 219.1101709 226.41505859 220.42260742 226.59667969 C231.60812838 228.07624225 242.72596773 228.76778512 254 229 C252.16500204 236.11557369 250.02292029 242.9991052 247.4375 249.875 C244.2390461 258.52466679 241.17523314 267.21287153 238.1875 275.9375 C234.66583197 286.21016748 231.08178747 296.45775346 227.4375 306.6875 C223.94060206 316.50756849 220.47214681 326.33669305 217.0625 336.1875 C216.70921631 337.20739014 216.35593262 338.22728027 215.99194336 339.27807617 C213.91732716 345.2872579 211.89244051 351.31085307 209.90917969 357.35083008 C209.07784908 359.77316316 208.16812298 362.1348689 207.1875 364.5 C202.91381728 374.93927242 199.3851632 385.72151398 195.875 396.4375 C194.60877776 400.2787288 193.22675069 404.04727474 191.75 407.8125 C188.27971475 416.72097617 185.21487907 425.77106184 182.10009766 434.80859375 C180.59412688 439.17744638 179.08285392 443.54445715 177.57128906 447.91137695 C176.84997525 449.99563837 176.12921062 452.08008998 175.40917969 454.16479492 C171.96800411 464.12008672 168.4797745 474.05778715 165 484 C110.55 484 56.1 484 0 484 C0 324.28 0 164.56 0 0 Z " fill="#F9C8B7" transform="translate(0,26)"/>
</svg>
