<?xml version="1.0" encoding="UTF-8"?>
<svg version="1.1" xmlns="http://www.w3.org/2000/svg" width="509" height="510">
<path d="M0 0 C110.55 0 221.1 0 335 0 C325.82317265 30.97179229 325.82317265 30.97179229 321.8203125 43.56640625 C321.36563763 45.00390928 320.91121951 46.44149354 320.45703125 47.87915039 C319.50547912 50.88996719 318.55265286 53.90037587 317.59869385 56.91043091 C315.03835225 64.99028106 312.48819636 73.07335094 309.9375 81.15625 C309.68134037 81.9677759 309.42518074 82.7793018 309.1612587 83.61541939 C304.43711022 98.58379193 299.76530732 113.56790392 295.125 128.5625 C287.68596072 152.595936 280.19493219 176.61285185 272.6875 200.625 C272.41259987 201.50429798 272.13769974 202.38359596 271.8544693 203.28953934 C268.88108275 212.80021038 265.90701359 222.31066773 262.93235493 231.82094097 C260.62021126 239.21353605 258.31000154 246.60673533 256 254 C256.98522644 253.98833801 256.98522644 253.98833801 257.99035645 253.97644043 C326.16035207 253.29655587 389.95939554 283.94634854 438 331 C446.93838792 339.90990358 454.59304584 349.80867986 462 360 C462.75216797 361.03157227 462.75216797 361.03157227 463.51953125 362.08398438 C494.95924474 405.75947026 509 456.65634738 509 510 C395.15 510 281.3 510 164 510 C165.94066747 502.88421928 167.92910458 496.02232011 170.4140625 489.11328125 C170.740578 488.1949501 171.06709351 487.27661896 171.40350342 486.33045959 C172.47365905 483.32314883 173.54937497 480.31785836 174.625 477.3125 C175.38796715 475.17089046 176.15049121 473.02912301 176.91259766 470.88720703 C178.4927131 466.44745235 180.07471484 462.00837702 181.65820312 457.56982422 C184.89781801 448.485796 188.11889826 439.39521603 191.33789062 430.30386353 C192.383691 427.35045606 193.430108 424.39726755 194.4765625 421.4440918 C199.88366674 406.17958185 205.25646916 390.90311068 210.625 375.625 C216.52107423 358.84575481 222.4523223 342.0799881 228.4493103 325.33654785 C236.71597913 302.25381338 244.85458198 279.12573999 253 256 C251.72660767 255.94054199 251.72660767 255.94054199 250.42749023 255.87988281 C232.72074873 255.01503219 215.3575304 253.8527374 198 250 C197.06961914 249.79391113 196.13923828 249.58782227 195.18066406 249.37548828 C152.80491867 239.70386459 114.50353955 219.51724303 82.4453125 190.22265625 C80.09848338 188.08951605 77.70965414 186.01367927 75.3125 183.9375 C71.82776719 180.84403544 68.72998506 177.59400627 65.7265625 174.03515625 C63.97438338 171.96980484 62.14851955 169.99091009 60.3125 168 C26.72518647 130.02049932 7.26215405 81.9641838 1 32 C0.89397461 31.19933105 0.78794922 30.39866211 0.67871094 29.57373047 C-0.4393014 19.66549219 0 10.10599633 0 0 Z " fill="#FAC9B8" transform="translate(0,0)"/>
</svg>
